/* XPM */
static char *_277325b8d774bfd9a4bd9da7b332d58[] = {
/* columns rows colors chars-per-pixel */
"32 32 187 2 ",
"   c black",
".  c #1B000E",
"X  c #221C19",
"o  c #2A2421",
"O  c #621A2D",
"+  c #553E42",
"@  c #004641",
"#  c #2F484A",
"$  c #5A5A5B",
"%  c #735748",
"&  c #676A6E",
"*  c #767777",
"=  c #B80000",
"-  c #BF0008",
";  c #BF0014",
":  c #B70034",
">  c #BC003A",
",  c #C50001",
"<  c #C80000",
"1  c #C7000B",
"2  c #C8000E",
"3  c #C50011",
"4  c #C90015",
"5  c #C7001C",
"6  c #C8001B",
"7  c #C60022",
"8  c #C90023",
"9  c #C4002A",
"0  c #C9002B",
"q  c #C40032",
"w  c #CA0033",
"e  c #CB003C",
"r  c #AB0043",
"t  c #B60046",
"y  c #B90047",
"u  c #BB004A",
"i  c #A61C46",
"p  c #B01547",
"a  c #BE114D",
"s  c #BB1D4F",
"d  c #BC2753",
"f  c #B33554",
"g  c #BA3051",
"h  c #BD3E56",
"j  c #C20046",
"k  c #CA0044",
"l  c #C50049",
"z  c #CC004D",
"x  c #D0004C",
"c  c #C60050",
"v  c #CC0150",
"b  c #CD0C51",
"n  c #D10452",
"m  c #D00E51",
"M  c #CC1452",
"N  c #CC1C55",
"B  c #D01353",
"V  c #D21A57",
"C  c #CD2257",
"Z  c #CE2559",
"A  c #CC2B59",
"S  c #D02157",
"D  c #D0235A",
"F  c #C03455",
"G  c #CF3761",
"H  c #D23762",
"J  c #8D5C50",
"K  c #A94158",
"L  c #B14050",
"P  c #B94055",
"I  c #BC4159",
"U  c #B25E5D",
"Y  c #BC5A5D",
"T  c #8D6956",
"R  c #B45A6F",
"E  c #BB7261",
"W  c #BD7468",
"Q  c #C04E47",
"!  c #C1525E",
"~  c #C0685F",
"^  c #C44261",
"/  c #CE4166",
"(  c #D04468",
")  c #D1516F",
"_  c #CE5471",
"`  c #D45573",
"'  c #C36261",
"]  c #C26F64",
"[  c #C07263",
"{  c #C97D6D",
"}  c #B88462",
"|  c #B5886E",
" . c #A3837D",
".. c #B98970",
"X. c #CC8D72",
"o. c #D48575",
"O. c #D18D76",
"+. c #C69678",
"@. c #D49578",
"#. c #D19A7A",
"$. c #D8A37E",
"%. c #898989",
"&. c #939597",
"*. c #A49287",
"=. c #B88B93",
"-. c #B39CA0",
";. c #A2A6A5",
":. c #A5AAAB",
">. c #ABACAB",
",. c #B4B4B4",
"<. c #E08B9B",
"1. c #E2909F",
"2. c #D4A282",
"3. c #DCA482",
"4. c #CEAA94",
"5. c #E2A482",
"6. c #E4AA86",
"7. c #ECAC84",
"8. c #E5AC88",
"9. c #EAAE89",
"0. c #E7B087",
"q. c #ECB38C",
"w. c #F4B083",
"e. c #F4B38C",
"r. c #FAB78E",
"t. c #FDBA8E",
"y. c #FBB790",
"u. c #F6BA91",
"i. c #FEBC92",
"p. c #DE91A0",
"a. c #E394A3",
"s. c #E897A5",
"d. c #E39AA6",
"f. c #D2A5AD",
"g. c #CAB0AC",
"h. c #E4A1AD",
"j. c #EBA1AF",
"k. c #ECA4B1",
"l. c #E7ACB6",
"z. c #ECAEB9",
"x. c #EBB2BC",
"c. c #FFC295",
"v. c #CDBFC1",
"b. c #EFB8C2",
"n. c #F2BBC4",
"m. c #C6C5C5",
"M. c #CEC2C3",
"N. c #CDCACC",
"B. c #DBC9C0",
"V. c #CED0D0",
"C. c #D3D4D3",
"Z. c #D9D5D3",
"A. c #D7D8D8",
"S. c #DEDADB",
"D. c #ECC2C9",
"F. c #EAC9CF",
"G. c #F0C8CF",
"H. c #F8CFD6",
"J. c #EDD6DA",
"K. c #F4D1D7",
"L. c #F3D6DB",
"P. c #F9D2D9",
"I. c #F3D9DE",
"U. c #F8D9DE",
"Y. c #E6DFE0",
"T. c #ECDEE1",
"R. c #F2DDE1",
"E. c #F9DBE0",
"W. c #E5E5E4",
"Q. c #EBE3E5",
"!. c #ECE7E9",
"~. c #E6EAEB",
"^. c gray93",
"/. c #F0E4E6",
"(. c #F9E3E7",
"). c #F3E7E9",
"_. c #FBE6EA",
"`. c #F5EDEE",
"'. c #FCECEF",
"]. c #FEEFF2",
"[. c #EDF4F3",
"{. c #F3F5F5",
"}. c #FAF4F5",
"|. c #FFF6F8",
" X c #F3FAF9",
".X c #FEFFFF",
"XX c None",
/* pixels */
"XXXXXXXXXXXXXXXXXXXXXXXXXXXX X X X XXXXXXXXXXXXXXXXXXXXXXXXXXXXX",
"XXXXXXXXXXXXXXXXXXXX.X^.R.G.x.h.h.l.D.J.!.{.XXXXXXXXXXXXXXXXXXXX",
"XXXXXXXXXXXXXXXX.X`.x._ w 1 6 8 8 5 3 0 / h.Q.[.XXXXXXXXXXXXXXXX",
"XXXXXXXXXXXXXX{.x.k 4 k N C C N N N Z N v 8 q d.!.XXXXXXXXXXXXXX",
"XXXXXXXXXX.X|._ , M C b z v v v n v v v b N N 8 A R.[.XXXXXXXXXX",
"XXXXXXXX.X].k e A v n z v v v v v v v v v v v C k 8 I.[.XXXXXXXX",
"XXXXXXXX|.k k C v v v v v v v v v v v v v v v z N b 8 R.XXXXXXXX",
"XXXXXX}._ e C v v v v v v v v v v v v N Z Z C M c M k M Q.XXXXXX",
"XXXX.Xx., A v v v v v v v v v v v M B w ; = - x V v C 9 p.[.XXXX",
"XXXX}.k Z v v C M v v v v v v n M x : =.M.S.M.K 9 M v N 9 J.XXXX",
"XX.Xb.< q t d 7 z M v M M M b M z f C..X.XA.;.[.f.q N N w p.[.XX",
"XX|.` s v.{.V.v.^ z n k l z k V 9 N..X.X,.    >.;.> B b v D Y.XX",
"XX_., -..XZ.m..XY.> P ] { [ Y a r [..X^.  X o     p x z C 7 F.XX",
"XXP., + *   %.}.~. .0.c.i.i.u.q.X.V..X{.$       . l B b N 6 x.XX",
".Xn.2 O     ,.&.& #   ..i.y.y.i.i.7.B..Xm.% T T J g y v C 0 d.[.",
".Xz.8 i @ :.W.Z.*.} | 3.i.y.y.y.r.i.7.4.q.i.c.c.i.q.#.h z w <.[.",
".Xz.5 z R g.0.w.8.i.i.i.y.i.y.y.t.t.i.t.q.+.$.0.r.t.c.q.! 0 <.{.",
".Xn.1 A k Q c.i.q.8.i.y.y.y.y.i.i.r.0.3.2.$.6.3.2.e.r.c.X.3 d.[.",
"XXH., Z N c { q.i.q.e.y.i.i.i.y.0.2.8.r.t.i.y.t.i.i.i.2.I 4 x.XX",
"XX(.9 N v v k f ' 9.y.6.9.0.6.2.6.t.y.t.y.r.c.c.5.o.Y u m 7 F.XX",
"XX}.` k b v M n z h q.c.q.0.0.t.y.y.r.y.i.i.2.E u k z m v B Y.XX",
"XX.Xx.2 Z v v v N z F 5.i.c.i.y.i.i.i.e.#.U t k v M M N 0 a.{.XX",
"XXXX'.e N v v v v M z j ' X.3.5.5.#.W L y z B M v v n C 5 J.XXXX",
"XXXX.Xz., A z v v z m m z k u u u u l n M M v v v n C 0 <. XXXXX",
"XXXXXX}.( k N v v v v v M M m b m M M b v v v v v M v k Q.XXXXXX",
"XXXXXXXX}.0 v N v v v v v v v v z v v v v v v v M N , I.XXXXXXXX",
"XXXXXXXX.X_.0 k Z v v v v v v v v v v v v v v C z , K..XXXXXXXXX",
"XXXXXXXXXX.X'.H 1 C N b v v v v v v v v v N Z 8 z E..XXXXXXXXXXX",
"XXXXXXXXXXXXXX].k.0 5 v C Z N N N C C C n 9 5 1./.XXXXXXXXXXXXXX",
"XXXXXXXXXXXXXXXX.X(.k.H 6 , 5 0 9 7 1 6 Z s.I..XXXXXXXXXXXXXXXXX",
"XXXXXXXXXXXXXXXXXXXX.X'.L.n.k.s.s.j.b.K.)..XXXXXXXXXXXXXXXXXXXXX",
"XXXXXXXXXXXXXXXXXXXXXXXXXXXX.X.X.X.XXXXXXXXXXXXXXXXXXXXXXXXXXXXX"
};
