/* XPM */
static char *_b14144fd0f54802c923eed662d6ea52[] = {
/* columns rows colors chars-per-pixel */
"64 64 256 2 ",
"   c #000000",
".  c #0B0B0B",
"X  c #080802",
"o  c #1A0406",
"O  c #121212",
"+  c #1A191D",
"@  c #00190D",
"#  c #23150E",
"$  c #241916",
"%  c #210C10",
"&  c #1F2020",
"*  c #00342C",
"=  c #2C2C2C",
"-  c #262323",
";  c #29383A",
":  c #383736",
">  c #500000",
",  c #47041B",
"<  c #660000",
"1  c #7E0000",
"2  c #521021",
"3  c #690026",
"4  c #493C30",
"5  c #464646",
"6  c #58524D",
"7  c #6B564A",
"8  c #7C504F",
"9  c #6A6A6A",
"0  c #797475",
"q  c #6F706E",
"w  c #910000",
"e  c #940019",
"r  c #B20000",
"t  c #AF0012",
"y  c #890024",
"u  c #840034",
"i  c #920235",
"p  c #9C003B",
"a  c #950438",
"s  c #8A163A",
"d  c #9A0021",
"f  c #B40022",
"g  c #BD0022",
"h  c #B8002A",
"j  c #A3013D",
"k  c #A9003A",
"l  c #A3093E",
"z  c #B4003E",
"x  c #BB003C",
"c  c #B10036",
"v  c #C80025",
"b  c #C4002A",
"n  c #C9002B",
"m  c #C50033",
"M  c #CA0034",
"N  c #C3003E",
"B  c #CA003B",
"V  c #991542",
"C  c #A40044",
"Z  c #AA0046",
"A  c #B10043",
"S  c #BB0043",
"D  c #BB004A",
"F  c #B40549",
"G  c #A01943",
"H  c #9A2F48",
"J  c #943C4E",
"K  c #A8304C",
"L  c #AF3C54",
"P  c #C50045",
"I  c #CB0043",
"U  c #C4024C",
"Y  c #CB014E",
"T  c #C70E4E",
"R  c #D1004E",
"E  c #CC0150",
"W  c #CC0B51",
"Q  c #C70051",
"!  c #D10152",
"~  c #D20B53",
"^  c #CD1353",
"/  c #CC1C55",
"(  c #CC1758",
")  c #D21553",
"_  c #D11B55",
"`  c #D61C58",
"'  c #CD2257",
"]  c #CC2559",
"[  c #CD2C5D",
"{  c #D12057",
"}  c #D42358",
"|  c #D3295B",
" . c #CA325F",
".. c #CC3C65",
"X. c #CD3562",
"o. c #8C4C5B",
"O. c #975B57",
"+. c #8F534F",
"@. c #AA595D",
"#. c #976A5A",
"$. c #AA695C",
"%. c #8A5A63",
"&. c #A85B64",
"*. c #9A6B65",
"=. c #9A7A69",
"-. c #876A6F",
";. c #A97966",
":. c #B6746F",
">. c #CE4369",
",. c #CA4A6C",
"<. c #CB5472",
"1. c #CB5B76",
"2. c #CF5D79",
"3. c #D15474",
"4. c #CD647C",
"5. c #C9687E",
"6. c #D1617C",
"7. c #958179",
"8. c #AC846F",
"9. c #A58566",
"0. c #B6876A",
"q. c #AE906F",
"w. c #AC8B73",
"e. c #AB8A79",
"r. c #B38C73",
"t. c #BE8B75",
"y. c #BD8B77",
"u. c #BE9379",
"i. c #B89376",
"p. c #BD906F",
"a. c #C2936D",
"s. c #C38676",
"d. c #C19473",
"f. c #CA9675",
"g. c #C4947B",
"h. c #C69A7C",
"j. c #CC9B7A",
"k. c #CB9977",
"l. c #D19D7B",
"z. c #D59D78",
"x. c #C38A68",
"c. c #D7A47E",
"v. c #E2A97D",
"b. c #A37981",
"n. c #CC6981",
"m. c #D26981",
"M. c #CC7B8C",
"N. c #CC7287",
"B. c #D37188",
"V. c #868484",
"C. c #959495",
"Z. c #9D9C9C",
"A. c #989796",
"S. c #958E90",
"D. c #AD9889",
"F. c #BE9A82",
"G. c #B48991",
"H. c #AB9B9F",
"J. c #9AA09F",
"K. c #AFA49F",
"L. c #A5A5A5",
"P. c #ADA9AB",
"I. c #B0ABAA",
"U. c #BAB2AC",
"Y. c #AFAFB1",
"T. c #B7B6B6",
"R. c #AEB3B2",
"E. c #CD9D83",
"W. c #D29B83",
"Q. c #CC8493",
"!. c #CD8B99",
"~. c #D48294",
"^. c #D48B9B",
"/. c #D0939F",
"(. c #C8A689",
"). c #D4A483",
"_. c #DBA985",
"`. c #DCAB8B",
"'. c #D6A587",
"]. c #DDB387",
"[. c #EBAC85",
"{. c #E2AC8A",
"}. c #E8AE88",
"|. c #E5B38D",
" X c #EBB18D",
".X c #EFB687",
"XX c #FDB585",
"oX c #F4B58D",
"OX c #FBB68D",
"+X c #F6BA8C",
"@X c #FDBA8D",
"#X c #F2B387",
"$X c #E9B592",
"%X c #F4B692",
"&X c #FBB691",
"*X c #F5BA93",
"=X c #FCBA92",
"-X c #FEBC99",
";X c #F5BC98",
":X c #DA94A3",
">X c #D89BA7",
",X c #CE9EA8",
"<X c #D3A2AC",
"1X c #DEA2AE",
"2X c #DCA6B1",
"3X c #D3ABB3",
"4X c #DCABB5",
"5X c #DBB5BD",
"6X c #DAB8BF",
"7X c #C7B9B0",
"8X c #E1B2BB",
"9X c #E0AEB6",
"0X c #FFC18D",
"qX c #F6C28C",
"wX c #FDC195",
"eX c #FEC19B",
"rX c #F6C194",
"tX c #EFC29A",
"yX c #DABAC1",
"uX c #E4B8C2",
"iX c #C7C7C7",
"pX c #D5C2C6",
"aX c #DBC7CB",
"sX c #DBCED1",
"dX c #D2D4D4",
"fX c #DBDBDC",
"gX c #D7D6D8",
"hX c #CDD1D1",
"jX c #E3C3CA",
"kX c #E8C6CE",
"lX c #E3CDD2",
"zX c #EACDD2",
"xX c #EBD5D9",
"cX c #E4DADC",
"vX c #EDD9DE",
"bX c #E4D1D6",
"nX c #D8E0DA",
"mX c #EADFE1",
"MX c #D9E3E2",
"NX c #E3E3E4",
"BX c #E9E5E6",
"VX c #EEEBEC",
"CX c #E6E7E8",
"ZX c #F3E1E5",
"AX c #F3E6EA",
"SX c #F3EBED",
"DX c #F3EFF1",
"FX c #ECF1F2",
"GX c #ECF6F8",
"HX c #F4F3F4",
"JX c #F9F5F6",
"KX c #F6F7F9",
"LX c #F6FAF9",
"PX c #FEFEFE",
"IX c #FCF7F9",
"UX c None",
/* pixels */
"UXUXUXUXUXUXUXUXUXUXUXUXUXUXUXUXUXUXUXUXUXUXUXUXUXUXUXUXUXUXUXUXUXUXUXUXUXUXUXUXUXUXUXUXUXUXUXUXUXUXUXUXUXUXUXUXUXUXUXUXUXUXUXUX",
"UXUXUXUXUXUXUXUXUXUXUXUXUXUXUXUXUXUXUXUXUXUXUXUXUXDXLXPXPXPXPXPXPXPXPXPXPXLXVXUXUXUXUXUXUXUXUXUXUXUXUXUXUXUXUXUXUXUXUXUXUXUXUXUX",
"UXUXUXUXUXUXUXUXUXUXUXUXUXUXUXUXUXUXUXUXUXVXLXPXPXPXPXSXcXaXaXyX6XpXaXbXBXHXPXPXPXLXBXUXUXUXUXUXUXUXUXUXUXUXUXUXUXUXUXUXUXUXUXUX",
"UXUXUXUXUXUXUXUXUXUXUXUXUXUXUXUXUXUXUXJXPXPXPXmXyX!.4. .Y B M M M B B I ' <.Q.3XsXLXPXPXDXUXUXUXUXUXUXUXUXUXUXUXUXUXUXUXUXUXUXUX",
"UXUXUXUXUXUXUXUXUXUXUXUXUXUXUXUXUXJXPXPXVXyXB.W M M I Y W ^ _ / / / / ^ Y I B M Y 1.,XcXPXPXHXUXUXUXUXUXUXUXUXUXUXUXUXUXUXUXUXUX",
"UXUXUXUXUXUXUXUXUXUXUXUXUXUXUXDXPXPXBX<X>.M B Y / / / W W Y E E E E E E W ^ / / W I M E Q.sXPXPXVXUXUXUXUXUXUXUXUXUXUXUXUXUXUXUX",
"UXUXUXUXUXUXUXUXUXUXUXUXUXUXLXPXDX3X .M Y / / W E E E E E E E E E E E E E E E E W ^ / Y B Y Q.fXPXLXUXUXUXUXUXUXUXUXUXUXUXUXUXUX",
"UXUXUXUXUXUXUXUXUXUXUXUXUXPXPXbX1.n Y ' W Y E E E E E E E E E E E E E E E E E E E E Y W / W B ] 3XKXPXNXUXUXUXUXUXUXUXUXUXUXUXUX",
"UXUXUXUXUXUXUXUXUXUXUXHXPXKX3XI I ' W E E E E E E E E E E E E E E E E E E E E E E E E E E E / Y M M.MXPXVXUXUXUXUXUXUXUXUXUXUXUX",
"UXUXUXUXUXUXUXUXUXUXHXPXDX~.n ^ / E Y E E E E E E E E E E E E E E E E E E E E E E E E E Y ! E W / B ,.sXPXDXUXUXUXUXUXUXUXUXUXUX",
"UXUXUXUXUXUXUXUXUXHXPXVXm.n ] W E E E E E E E E E E E E E E E E E E E E E E E E E E E E E E E E E ' I / pXPXVXUXUXUXUXUXUXUXUXUX",
"UXUXUXUXUXUXUXUXHXPXSX2.M ] Y Y E E E E E E E E E E E E E Y E E E E E E E E E E E E E E E E E E E Y / Y E pXPXVXUXUXUXUXUXUXUXUX",
"UXUXUXUXUXUXUXUXPXHXm.M ] E E E E E E E E E E E E E E E E E E E E E E E E E E E E E E E E E E E E E E / Y T aXPXcXUXUXUXUXUXUXUX",
"UXUXUXUXUXUXUXPXLX~.n ] E E E E E E E E E E E E E E E E E E E E E E E E E E E E E E E E E E E E E E E Y / Y ..fXPXUXUXUXUXUXUXUX",
"UXUXUXUXUXUXLXPX4Xn ] Y E E E E E E E E E E Y E E E E E E E E E E E E E E E E E E E E E E E E E E E E E E ' B n.HXLXUXUXUXUXUXUX",
"UXUXUXUXUXJXPXxXI ^ W E E E E E E E E E E E ! E E E E E E E E E E E E E E E E E E E E E E E E E E E E E E E ' M ,XPXVXUXUXUXUXUX",
"UXUXUXUXUXPXHX6.B / E E E E E E E E E E E E E E E E E E E E E E E E E E E Y Y Y ^ / { _ ^ W E E E E E E E E W W Y sXPXUXUXUXUXUX",
"UXUXUXUXIXPX5Xn ] Y E E E E E E E E E E E E E E E E E E E E E E E E E E E W { ` Y m b h P ! / E E E E E E E E / B N.PXDXUXUXUXUX",
"UXUXUXUXPXDXX.Y W E E Y E E E E E E E E E E E E E E E E E E E E E E E E / ~ f w o.-.C.S.-.y h / ) E E E E E E E / B pXPXUXUXUXUX",
"UXUXUXLXPX4Xv ] E E E W W E E E E E E E E E E E E E E E E E E E E E E { m y Z.gXKXPXPXPXPXFXL.1 P / Y E E E E E ^ I 5.PXDXUXUXUX",
"UXUXUXPXHX>.Y W W / _ W ! ~ ' T E E E E E E E E E E E E E E E E E E ' f 0 MXPXPXPXPXPXHXdXI.iXfXb.v ' Y Y E E E E ^ P aXPXUXUXUX",
"UXUXUXPXjXn / _ ! g t i p z g Y / Y E E E E E E E E E E E E E Y Q _ f V.LXPXLXIXPXPXiX6   q PXPXGX:.I ^ E E E E E / B Q.PXBXUXUX",
"UXUXIXPX~.M ] N i H.dXCXCXJ.I.L m / E E E Y E E W Y E Y E E E E ^ Y 8 GXPXLXLXPXPXJ.    O 5 iXBXKXR.g _ E E E E E W Y [ VXKXUXUX",
"UXUXPXDX' W P %.MXPXPXPXHXL.PXFXG.b _ Y E ^ _ ) ~ ~ ) ) ^ ^ W E { r T.LXIXPXPXPXT.  = O .     & :   l ! Y E E E E E / M yXPXUXUX",
"UXUXPXkXb | e nXPXPXPXDXL.NXPXPXPXG.B ] ~ P z A Z j j k z P R _ } d nXPXPXPXPXDX:   O     . &       a ! Y E E E E E / B !.PXUXUX",
"UXLXPX1Xn [ < hXPXPXVX0 5 JXPXPXPXMXD P u *.i.z._._.l.u.8.@.H j P C NXPXPXPXPXfX  &           . % X a ! E E E E E E ^ I <.LXDXUX",
"UXPXPXB.B ' > ; L.A.-     hXPXPXPXPXo.+._.=X=X=X@X@X0X0X@X-X|.l.;.< gXPXPXPXPXfX  = .           o   l ! Y E Y E E E W Y E VXLXUX",
"UXPXIX>.Y T 2         =   hXPXNXfXdXq (.*X@X-X%X=X&X&X%X&X@X@X-XeX|.D.hXPXPXPXPXV.  X & # # # $ @ 2 T E E E E E E E Y / B lXLXUX",
"UXPXAXE Y W 3 X - & .   : T.: 5 L.Y.A.  O 7 E.#X=X=X&X=X&X=X=X&XOX=X-Xj.U.PXPXPXPXI.;             u R ~ / W Y E E E W / M 6XLXUX",
"UXPXvXB / ! p   o O :   A.HXZ.                h.-XOX=X&X=X&X&X+X+X@X+X0X_.U.PXLXdXT.=.;.s.h.g.s.9.=.+.j x E ^ Y E E E / M <XPXUX",
"UXPXxXM / E U ,       9 LXPXPXFXT.6 7 4 4 7 =. X=X&X=X&X&X=X&X&X&X=X=X%X@X].I.D.p.v.@X-XwX=X@XwX0X=XOX_.w.H N ~ W Y E / M ,XPXUX",
"UXPXzXM / E W i * 0 Y.HXMXU.K.7XU.F.wX%X;X;X-X&X@X=X&X=X@X&X=X&X@X&X=X&X=X}.z.&XwX-X@XoXOX+X+X&X&X&X&X@XeX$X;.k ! W Y / M /.PXUX",
"UXPXzXn / E W Y J I.CXT.x.[.#XXX_.h.@X@X=X=XOX&X=X&X@X&X&X=X&X=X&X&X&X=X&X&X-X@XOX#X%X0X0XeX=X@X+X&X&X&X&X=XwXu.C ! Y / M /.PXUX",
"UXPXxXM / E Y W Y g 1 t.eX=X=X=X@Xj.=X&X&X&X=X=X&X=X&X&X=X&X=X&X&X=X=X@X@X&XOX@X-X(.=.8 =.a.v.*XwX@XXX&X=X@XXX-Xg.x _ / M ,XPXUX",
"UXPXvXB / E W E W | P l.0X&X&X+X@XE.}.@X&X=X=X&X=X&X&X=X&X=X&X=X@X&X&X+X@XwX@X_.g.q.i.a.c.E.8.=.w._.+X@X%X+X-X+X.XK W ' b <XPXUX",
"UXPXZXY W W E E E ^ P :.rXOX&X@X@X&Xf.&X=X&X&X=X&X=X=X&X=X&X=X*X=XXX@X-X}.f.t.g._.oX0X-X0X-X0X&X`.g. X=X=X+X+X@X|.G ! / M 5XPXUX",
"UXPXIX..Y W E E E E ^ x t.;X@X*XOX@X$Xl.&X=X&X=X=X&X@X&X&X&X&X+X+XeX Xr.r.|.;X=X@X=X&X&X&X&X@XXX-XwX=X&X&X&X=XtX*.S ) / M zXPXUX",
"UXPXPXm.B ^ E E E E E W x &.(.qX0X@X=X%X[.&X=X=X&X&X&X&X&X&X=X0X#Xu.e.|.wX@XXX@X@X+X+X&X&X=X=X*X;XOX@X@X0X-X'.O.P ) E E Y BXLXUX",
"UXPXPX:Xn ' E E E E E E ) I k O.p.j.&X+X=X[.c.oX=XwX=X=X0X-X Xg.8.'.=X@XOX&X&X=X&X&X&X@X+X&X&XOXXX@X;X`.a.O.p Y ^ Y ^ I ,.PXHXUX",
"UXUXPXkXn ' E E E E E E Y ^ ) Y z z :.wXOX=X|.z.k.l.c._.h.0.r.'.-X=X&X+X&X&X=X=X=X=X=X&X+X%X=X0X].;.L D z P ~ ^ Y Y / B Q.PXUXUX",
"UXUXPXSXY W E E E E E E E E E W / { x t.wXOX@X-X%X{.).)._.$X=X@XOX@X=X&X@X&X=X=X&X&X&X+XqX=X`.9.V P R ! ) ^ E E E E / M 6XPXUXUX",
"UXUXPXPXB.B / E E E E E E E E E W Y ) z s.-X@XoX@X=X=X=X@X@X@XOX@X+X&X&X&X=X&X&X&X=X-X=XW.#.s x R _ W E E E E E E W Y E SXLXUXUX",
"UXUXUXPXuXv { E E E E E E E E E Y Y W ) x :.;X@X%X%XOXoX;X&X@X&X&X=X&X=X@X&X&X-X0X+Xh.+.u S ! _ E Y E E E E E E E / B M.PXVXUXUX",
"UXUXUXPXDX' Y W E E E E E E E E Y Y Y E _ N @._.qXwX@XOXXX@X+X+XOXOX@X&X=X@XqX_.q.8 a F ) ~ W E E E E E E E E E E / m jXPXUXUXUX",
"UXUXUXPXPX1Xn ' Y E E E E E E E E E E E Y _ Y z $.W. X+XwXwX-X-X=XwXeX+X_.u.#.s C Y ) ^ Y E E E Y E E E E E E E ^ I <.PXHXUXUXUX",
"UXUXUXUXPXAXY W W Y E E E E E E E E E E Y Y ^ W Y z K $.0.u.f.f.d.p.$.+.s j D ! _ W E W E E E E E E E E E E E E ' M yXPXUXUXUXUX",
"UXUXUXUXIXPX1Xv ] Y E E E E E E E E E E E E Y E ^ ^ ! P D A Z C C F D Q ! ) ^ W Y Y Y E E E E E E E E E E E E ^ I 1.PXLXUXUXUXUX",
"UXUXUXUXUXPXHX..Y ^ E E E E E E E E E E E Y E E E E E ^ ^ _ ) ) _ ^ ^ W E E E E Y Y E E E E E E E E E E E E E / M lXPXUXUXUXUXUX",
"UXUXUXUXUXIXPXkXn ] Y E E E E E E E E E E E E E E E E E E E Y Y E Y E E E E E Y E E E E E E E E E E E E Y E ' M ^.PXDXUXUXUXUXUX",
"UXUXUXUXUXUXPXPX:Xv [ Y E E E E E E E E E E E E E E E E E E E E E E E E E E E E E E E E E E E E E E E E Y / I ,.HXPXUXUXUXUXUXUX",
"UXUXUXUXUXUXUXPXIX6.B { Y E E E E E E E E E E E E E E E E E E E E E E E E E E E E E E E E E E E E E E E ^ Y Y cXPXUXUXUXUXUXUXUX",
"UXUXUXUXUXUXUXUXPXSXX.I { Y E E E E E E E E E E E E E E E E E E E E E E E E E E E E E E E E E E E E E ^ ^ M jXPXUXUXUXUXUXUXUXUX",
"UXUXUXUXUXUXUXUXIXPXZX^ I ' E E E E E E E E E E E E E E E E E E E E E E E E E E E E Y E E E E E E Y ^ ^ M 5XPXHXUXUXUXUXUXUXUXUX",
"UXUXUXUXUXUXUXUXUXPXPXZX[ B ] E E E E E E E E E E E E E E E E E E E E E E E E E E E E E E E E E E / Y M 6XPXJXUXUXUXUXUXUXUXUXUX",
"UXUXUXUXUXUXUXUXUXUXPXPXAX3.n ] W E E E E E E E E E E E E E E E E E E E E E E E E E E E E E E E ' I Y jXPXJXUXUXUXUXUXUXUXUXUXUX",
"UXUXUXUXUXUXUXUXUXUXUXPXPXIX~.v Y ' E E E E E E E E E E E E E E E E E E E E E E E E E E E E / / n <.cXPXJXUXUXUXUXUXUXUXUXUXUXUX",
"UXUXUXUXUXUXUXUXUXUXUXUXUXPXPXuX! n / / E E E E E E E E E E E E E E E E E E E E E E E E ^ ] I M :XPXPXUXUXUXUXUXUXUXUXUXUXUXUXUX",
"UXUXUXUXUXUXUXUXUXUXUXUXUXUXPXPXSX^.B M ^ ' ^ E E E E E E E E E E E E E E E E E E W / / I n 4.zXPXPXUXUXUXUXUXUXUXUXUXUXUXUXUXUX",
"UXUXUXUXUXUXUXUXUXUXUXUXUXUXUXPXPXPXvX~.I n I / { / W Y E E Y E E E E E Y W ^ ' ' Y M M 2.jXPXPXHXUXUXUXUXUXUXUXUXUXUXUXUXUXUXUX",
"UXUXUXUXUXUXUXUXUXUXUXUXUXUXUXUXUXPXPXPXZX1X>.m n B Y ^ ' ' ] { ' ' ' / / Y I M n ( ~.zXPXPXPXUXUXUXUXUXUXUXUXUXUXUXUXUXUXUXUXUX",
"UXUXUXUXUXUXUXUXUXUXUXUXUXUXUXUXUXUXUXPXPXPXPXxX1Xm.] B n v v v v v v n M Y 3.:XkXIXPXPXPXUXUXUXUXUXUXUXUXUXUXUXUXUXUXUXUXUXUXUX",
"UXUXUXUXUXUXUXUXUXUXUXUXUXUXUXUXUXUXUXUXUXUXPXPXPXPXPXAXzXuX9X2X2X9X8XkXZXIXPXPXPXPXUXUXUXUXUXUXUXUXUXUXUXUXUXUXUXUXUXUXUXUXUXUX",
"UXUXUXUXUXUXUXUXUXUXUXUXUXUXUXUXUXUXUXUXUXUXUXUXUXPXPXPXPXPXPXPXPXPXPXPXPXPXPXUXUXUXUXUXUXUXUXUXUXUXUXUXUXUXUXUXUXUXUXUXUXUXUXUX",
"UXUXUXUXUXUXUXUXUXUXUXUXUXUXUXUXUXUXUXUXUXUXUXUXUXUXUXUXUXUXUXUXUXUXUXUXUXUXUXUXUXUXUXUXUXUXUXUXUXUXUXUXUXUXUXUXUXUXUXUXUXUXUXUX"
};
