/* XPM */
static char *_501e6b49da64c6eca26ce393acda13b[] = {
/* columns rows colors chars-per-pixel */
"16 16 188 2 ",
"   c black",
".  c #000019",
"X  c #7C002A",
"o  c #274844",
"O  c #AE0022",
"+  c #C60000",
"@  c #C70000",
"#  c #C70002",
"$  c #C8000F",
"%  c #C80011",
"&  c #C80024",
"*  c #CB0025",
"=  c #CB0026",
"-  c #CB0028",
";  c #CC0029",
":  c #CC002D",
">  c #CD002E",
",  c #C60033",
"<  c #C60035",
"1  c #CB0032",
"2  c #CA0037",
"3  c #CA0039",
"4  c #C9003A",
"5  c #CA003B",
"6  c #CA003D",
"7  c #CA0040",
"8  c #CB0044",
"9  c #C90047",
"0  c #CC0046",
"q  c #C20049",
"w  c #C7004C",
"e  c #C5004E",
"r  c #C6004E",
"t  c #C7004F",
"y  c #C80049",
"u  c #C90049",
"i  c #CB004A",
"p  c #CA004B",
"a  c #CD0049",
"s  c #C9004D",
"d  c #CB004C",
"f  c #CC004D",
"g  c #CC004F",
"h  c #CD004F",
"j  c #CB054F",
"k  c #CC074F",
"l  c #D10046",
"z  c #D30047",
"x  c #D4004A",
"c  c #D3004C",
"v  c #D3004D",
"b  c #D2004E",
"n  c #CC0150",
"m  c #CC0250",
"M  c #CC0B51",
"N  c #CC0D52",
"B  c #CD1151",
"V  c #CC1653",
"C  c #CC1754",
"Z  c #CD1852",
"A  c #CC1D53",
"S  c #CD1B54",
"D  c #CE1C54",
"F  c #CD1E54",
"G  c #CE1C56",
"H  c #CE2355",
"J  c #CD2759",
"K  c #CE2759",
"L  c #CD2959",
"P  c #CD2C59",
"I  c #CE2C5A",
"U  c #CE2F5A",
"Y  c #D6235A",
"T  c #D9235C",
"R  c #D9285E",
"E  c #D82E5F",
"W  c #D5335D",
"Q  c #D93361",
"!  c #DB3864",
"~  c #C44958",
"^  c #D04557",
"/  c #CA555F",
"(  c #CA745A",
")  c #D5785E",
"_  c #C44C67",
"`  c #CF5E62",
"'  c #C96763",
"]  c #CF736A",
"[  c #D07065",
"{  c #D57D6F",
"}  c #908277",
"|  c #C0916F",
" . c #D88573",
".. c #CB9470",
"X. c #D49076",
"o. c #E2997D",
"O. c #C56F83",
"+. c #DF6C84",
"@. c #C27583",
"#. c #C87980",
"$. c #CA7887",
"%. c #C47E89",
"&. c #E06681",
"*. c #E26D85",
"=. c #E07389",
"-. c #E3738A",
";. c #E27B8F",
":. c #E47C90",
">. c #9CA7A5",
",. c #A2B1AF",
"<. c #E19F80",
"1. c #E48798",
"2. c #E78799",
"3. c #E58B9B",
"4. c #E58D9D",
"5. c #E8889A",
"6. c #D3AE9C",
"7. c #E7A683",
"8. c #E7A486",
"9. c #E8A584",
"0. c #E3A881",
"q. c #EEAC80",
"w. c #E8AC89",
"e. c #EBAE89",
"r. c #EDAF8A",
"t. c #F3B28C",
"y. c #F4B58C",
"u. c #F5B58F",
"i. c #F8B58B",
"p. c #FAB78F",
"a. c #F2B88E",
"s. c #F7B88F",
"d. c #F7BA8F",
"f. c #F7BA90",
"g. c #F8B990",
"h. c #FDB891",
"j. c #FEB891",
"k. c #FEBC93",
"l. c #FCBE92",
"z. c #FFBE93",
"x. c #FFBE94",
"c. c #FFBF96",
"v. c #EC97A6",
"b. c #ED99A8",
"n. c #EC9EAB",
"m. c #D0A0A7",
"M. c #D5A4AC",
"N. c #D7A4AC",
"B. c #DAA7B0",
"V. c #DDA6B0",
"C. c #DBACB5",
"Z. c #DCACB6",
"A. c #CCB2B7",
"S. c #C1BABA",
"D. c #D7BAB7",
"F. c #DCB1B8",
"G. c #EDA2AF",
"H. c #E0ABB4",
"J. c #E4B4BC",
"K. c #F9C194",
"L. c #F7C29C",
"P. c #EBCEBF",
"I. c #DFBBC1",
"U. c #DEBEC4",
"Y. c #E2B9C0",
"T. c #E5B9C1",
"R. c #E4BAC1",
"E. c #E5BBC3",
"W. c #E0BDC3",
"Q. c #E7BCC3",
"!. c #E1BEC4",
"~. c #BDC2C0",
"^. c #D5DEDD",
"/. c #E1C9CB",
"(. c #EAC8CD",
"). c #E9C8CE",
"_. c #F0C8CF",
"`. c #E5CED1",
"'. c #ECCED2",
"]. c #EFD7DA",
"[. c #E3DCDD",
"{. c #F2D2D7",
"}. c #EEE1E3",
"|. c #F4F0F0",
" X c #F7F0F2",
".X c #F4F8F7",
"XX c #F9FFFF",
"oX c None",
/* pixels */
"oXoXoXoXoXoX`.W.I./.oXoXoXoXoXoX",
"oXoXoXoXY.;.Q v v E =.C.oXoXoXoX",
"oXoX|.n.- 2 f N M m 9 1 4.[.oXoX",
"oXoXG.# J V m d V a & 0 $ 3.oXoX",
"oXE.# 2 d Z B H 2 _ N.$.G > B.oX",
"oX1.N.m.I 9 e , O..X~.>.%.* *.oX",
"{.@.,.^.A.( 8.) D.XX.   X v Y U.",
"_.O o S.} | c.c.i.(.6...X./ l F.",
").l #.L.y.j.j.j.i.q.0.e.z.K.^ C.",
"].! 8 [ 9.s.t.e.e.y.z.d.9. .W W.",
"oX:.2 d e o.y.d.K.d.<.' d < &.oX",
"oXE.* U f e ' { ] ~ q 0 J > V.oX",
"oXoXb.@ J G d u u f G I % 3.oXoX",
"oXoX Xv.* 2 k G A j 6 ; 5.}.oXoX",
"oXoXoXoXJ.=.R x x T *.H.oXoXoXoX",
"oXoXoXoXoXoX'.E.E.).oXoXoXoXoXoX"
};
